<svg xmlns="http://www.w3.org/2000/svg" viewBox="0 0 528 328" width="528" height="328">
<path fill="#3D0E22" transform="translate(116,30)" d="M0 0 C0.691 0.255 1.382 0.51 2.094 0.773 C11.819 4.98 18.632 12.558 22.883 22.105 C32.002 45.732 21.363 71.91 14.094 94.573 C12.543 99.432 11.041 104.305 9.562 109.188 C9.328 109.945 9.094 110.703 8.852 111.484 C3.193 130.189 1.697 151.847 10.355 169.812 C16.555 180.981 24.874 186.818 36.879 191.004 C61.443 197.922 87.781 191.509 112 186 C113.728 185.615 115.456 185.231 117.184 184.848 C118.443 184.568 119.702 184.288 121 184 C120.638 183.498 120.638 183.498 118.805 180.957 C112.876 172.62 107.7 164.591 104 155 C103.831 154.591 103.831 154.591 102.977 152.523 C97.771 137.481 100.049 119.331 106.285 105.059 C113.253 91.104 124.389 81.291 138.887 75.945 C149.822 72.625 160.644 73.444 170.957 78.43 C177.786 82.357 177.786 82.357 179 86 C179.66 86 180.32 86 181 86 C190.657 98.4 191.458 113.194 189.602 128.227 C186.413 143.256 178.567 156.105 168 167 C167.22 167.808 166.44 168.616 165.637 169.449 C158.263 176.55 149.157 182.422 140 187 C145.978 191.994 151.937 195.853 159 199.125 C159.914 199.552 160.829 199.98 161.771 200.42 C193.969 215.089 230.682 215.516 265.445 215.206 C269.362 215.175 273.278 215.161 277.195 215.146 C284.797 215.115 292.398 215.064 300 215 C299.596 214.405 299.192 213.811 298.775 213.198 C298.241 212.406 297.707 211.613 297.156 210.797 C296.628 210.017 296.101 209.236 295.557 208.433 C290.766 200.946 288.18 192.779 285.688 184.312 C285.421 183.421 285.154 182.53 284.879 181.612 C281.38 169.241 281.38 169.241 284 164 C286.746 163.137 286.746 163.137 290 163 C292.535 164.52 292.535 164.52 295.062 166.812 C296.015 167.643 296.968 168.473 297.949 169.328 C298.447 169.768 298.945 170.209 299.458 170.662 C307.977 178.055 317.196 184.435 327 190 C327.704 190.403 328.408 190.805 329.133 191.22 C344.226 199.758 359.492 205.035 376.254 209.238 C379 210 379 210 380 211 C380.041 213 380.043 215 380 217 C375.21 219.03 370.379 220.891 365.445 222.543 C335.756 232.496 312.635 247.249 297 275 C296.442 275.984 295.884 276.967 295.309 277.98 C294.473 279.478 293.647 280.982 292.84 282.496 C292 284 292 284 291 285 C288.063 285.188 288.063 285.188 285 285 C283 283 283 283 282.745 280.958 C282.804 274.904 283.436 269.232 284.688 263.312 C284.778 262.879 284.778 262.879 285.233 260.685 C288.16 247.115 293.26 234.589 299 222 C297.779 222.205 296.559 222.41 295.301 222.621 C293.638 222.894 291.975 223.166 290.312 223.438 C289.515 223.572 288.718 223.707 287.896 223.846 C275.658 225.829 263.379 226.24 251 226.25 C250.266 226.251 249.532 226.251 248.776 226.252 C210.046 226.196 163.132 221.405 132.812 194.496 C131 193 131 193 128 192 C125.789 192.63 123.605 193.357 121.438 194.125 C92.43 203.76 53.48 210.517 24.875 196.465 C11.236 188.98 2.547 177.894 -2 163 C-9.565 132.578 0.203 104.899 9.84 76.12 C15.249 59.703 20.663 40.302 13.996 23.465 C8.992 13.573 1.259 9.48 -9 6 C-12.687 5.188 -12.687 5.188 -16 5 C-17.299 4.897 -18.599 4.794 -19.938 4.688 C-37.855 5.022 -53.661 14.448 -68.109 24.117 C-74.071 28 -74.071 28 -79 28 C-77.693 20.98 -71.444 17.177 -65.906 13.294 C-46.573 0.173 -23.053 -8.837 0 0 Z M120.965 101.418 C111.527 114.022 109.867 127.737 111 143 C112.934 156.388 119.969 168.161 129 178 C129.495 178.33 129.495 178.33 132 180 C140.383 176.138 147.732 171.683 155 166 C155.624 165.542 156.248 165.085 156.891 164.613 C169.628 154.703 177.675 139.156 180.594 123.555 C181.937 111.804 180.164 101.983 172.812 92.688 C166.9 86.452 161.202 84.777 152.688 84.438 C138.946 84.877 129.652 91.097 120.965 101.418 Z M293 177 C293.99 180.63 294.98 184.26 296 188 C296.99 188 297.98 188 299 188 C299.66 186.35 300.32 184.7 301 183 C298.36 181.02 295.72 179.04 293 177 Z M304 186 C303.67 186.495 303.67 186.495 302 189 C303.32 188.67 304.64 188.34 306 188 C305.34 187.34 304.68 186.68 304 186 Z M303.375 192.5 C302.966 192.639 302.966 192.639 300.898 193.344 C300.272 193.56 299.645 193.777 299 194 C299.99 195.98 300.98 197.96 302 200 C304.932 197.147 307.643 194.349 310 191 C307.534 191 305.707 191.701 303.375 192.5 Z M313 193 C309 197.75 309 197.75 309 200 C312.775 198.909 315.47 198.092 318 195 C317.175 194.67 317.175 194.67 313 193 Z M319 200 C316.18 201.215 316.18 201.215 312.875 202.938 C312.327 203.22 312.327 203.22 309.555 204.652 C308.712 205.097 307.869 205.542 307 206 C307.66 207.65 308.32 209.3 309 211 C312 211 312 211 314.262 208.812 C315.062 207.884 315.863 206.956 316.688 206 C317.496 205.072 318.304 204.144 319.137 203.188 C319.752 202.466 320.366 201.744 321 201 C320.34 200.67 319.68 200.34 319 200 Z M326 200 C324.611 201.961 323.274 203.962 322 206 C324.622 204.951 325.794 204.351 327.25 201.875 C327.498 201.256 327.745 200.637 328 200 C327.34 200 326.68 200 326 200 Z M333 204 C332.727 204.394 332.727 204.394 331.348 206.387 C325.898 214.258 320.449 222.129 315 230 C315.33 230.66 315.66 231.32 316 232 C321.33 226.766 326.537 221.505 331.395 215.828 C333.804 213.085 336.387 210.549 339 208 C338.67 207.01 338.34 206.02 338 205 C336.35 204.67 334.7 204.34 333 204 Z M346 209 C345.34 211.31 344.68 213.62 344 216 C346.494 214.796 348.681 213.546 351 212 C351 211.34 351 210.68 351 210 C349.35 209.67 347.7 209.34 346 209 Z M354 212 C353.505 212.66 353.505 212.66 351 216 C357.625 215.25 357.625 215.25 361 213 C358.69 212.67 356.38 212.34 354 212 Z M317.117 214.625 C312.155 219.881 308.6 225.053 305.375 231.5 C305.02 232.206 304.666 232.913 304.3 233.641 C303.461 235.394 302.721 237.195 302 239 C302.33 239.66 302.66 240.32 303 241 C303.403 240.39 303.806 239.78 304.222 239.152 C306.062 236.37 307.906 233.591 309.75 230.812 C310.384 229.853 311.018 228.893 311.672 227.904 C312.291 226.973 312.909 226.042 313.547 225.082 C314.112 224.228 314.678 223.375 315.261 222.495 C317 220 317 220 319.216 217.307 C321 215 321 215 321 213 C319 213 319 213 317.117 214.625 Z M331.938 220.875 C331.654 221.153 331.654 221.153 330.217 222.559 C328.771 224 327.381 225.496 326 227 C326 227.66 326 228.32 326 229 C330.153 227.534 333.623 225.852 337 223 C338.089 220.305 338.517 217.897 339 215 C336.552 215 333.696 219.118 331.938 220.875 Z M313 233 C314 235 314 235 314 235 Z M301 241 C302 243 302 243 302 243 Z M298 252 C299 254 299 254 299 254 Z"/>
</svg>
